<svg xmlns="http://www.w3.org/2000/svg" xml:space="preserve" viewBox="0 0 99.818 100" width="24px" height="24px">
  <path d="M93.152 0H53.331c-3.676 0-6.666 2.99-6.666 6.667v24.446c0 3.676 2.99 6.666 6.666 6.666h1.398c-.749 2.27-2.202 5.447-4.762 6.983-.879.525-1.285 1.585-.981 2.562.289.935 1.152 1.566 2.123 1.566.043 0 .086-.002.132-.004.622-.037 14.654-.988 19.173-11.107H93.45c.138 0 .273-.013.403-.037 3.348-.352 5.965-3.19 5.965-6.629V6.668c0-3.673-2.989-6.664-6.666-6.668zm2.223 31.113c0 1.226-.996 2.222-2.223 2.222H68.89c-.967 0-1.822.623-2.116 1.543-1.474 4.59-5.784 7-9.531 8.252 1.929-3.477 2.512-6.992 2.55-7.224.102-.642-.082-1.297-.504-1.792-.423-.496-1.039-.779-1.69-.779h-4.267c-1.226 0-2.222-.996-2.222-2.222V6.667c0-1.227.996-2.223 2.222-2.223l39.821.003c1.227 0 2.223.996 2.223 2.222v24.444z"/>
  <circle cx="29.999" cy="47.779" r="11.111"/>
  <path d="M82.22 87.779c0-3.069-2.487-5.557-5.556-5.557h-.124l-2.191-7.304c-.352-1.175-1.588-1.839-2.767-1.492-1.176.354-1.843 1.593-1.491 2.768l1.808 6.028H61.664L49.999 66.667c-1.049-1.399-2.695-2.223-4.445-2.223H19.745L11.11 50.63V27.78c0-3.069-2.487-5.556-5.555-5.556C2.486 22.224 0 24.71 0 27.78v24.444c0 1.041.293 2.062.844 2.943l9.155 21.639V100h37.777V82.223l6.666 8.888c1.05 1.4 2.695 2.224 4.445 2.224h16.346l1.525 5.081c.289.963 1.172 1.584 2.129 1.584.211 0 .426-.03.638-.094 1.176-.353 1.843-1.592 1.491-2.767l-1.4-4.67c1.559-.984 2.604-2.709 2.604-4.69z"/>
</svg>
